HIERARCHY
ROOT root
{
	OFFSET 0.000000 0.000000 0.000000
	CHANNELS 6 Xposition Yposition Zposition Zrotation Yrotation Xrotation
	JOINT lhip
	{
		OFFSET 0.058581 -0.082280 -0.017664
		CHANNELS 3 Zrotation Yrotation Xrotation
		JOINT lknee
		{
			OFFSET 0.043451 -0.386469 0.008037
			CHANNELS 3 Zrotation Yrotation Xrotation
			JOINT lankle
			{
				OFFSET -0.014790 -0.426874 -0.037428
				CHANNELS 3 Zrotation Yrotation Xrotation
				JOINT ltoe
				{
					OFFSET 0.041054 -0.060286 0.122042
					CHANNELS 3 Zrotation Yrotation Xrotation
					End Site
					{
						OFFSET 0.000000 0.000000 0.000000
					}
				}
			}
		}
	}
	JOINT rhip
	{
		OFFSET -0.060310 -0.090513 -0.013543
		CHANNELS 3 Zrotation Yrotation Xrotation
		JOINT rknee
		{
			OFFSET -0.043257 -0.383688 -0.004843
			CHANNELS 3 Zrotation Yrotation Xrotation
			JOINT rankle
			{
				OFFSET 0.019056 -0.420046 -0.034562
				CHANNELS 3 Zrotation Yrotation Xrotation
				JOINT rtoe
				{
					OFFSET -0.034840 -0.062106 0.130323
					CHANNELS 3 Zrotation Yrotation Xrotation
					End Site
					{
						OFFSET 0.000000 0.000000 0.000000
					}
				}
			}
		}
	}
	JOINT lowerback
	{
		OFFSET 0.004439 0.124404 -0.038385
		CHANNELS 3 Zrotation Yrotation Xrotation
		JOINT upperback
		{
			OFFSET 0.004488 0.137956 0.026820
			CHANNELS 3 Zrotation Yrotation Xrotation
			JOINT chest
			{
				OFFSET -0.002265 0.056032 0.002855
				CHANNELS 3 Zrotation Yrotation Xrotation
				JOINT lowerneck
				{
					OFFSET -0.013390 0.211636 -0.033468
					CHANNELS 3 Zrotation Yrotation Xrotation
					JOINT upperneck
					{
						OFFSET 0.010113 0.088937 0.050410
						CHANNELS 3 Zrotation Yrotation Xrotation
						End Site
						{
							OFFSET 0.000000 0.000000 0.000000
						}
					}
				}
				JOINT lclavicle
				{
					OFFSET 0.071702 0.114000 -0.018898
					CHANNELS 3 Zrotation Yrotation Xrotation
					JOINT lshoulder
					{
						OFFSET 0.122921 0.045205 -0.019046
						CHANNELS 3 Zrotation Yrotation Xrotation
						JOINT lelbow
						{
							OFFSET 0.255332 -0.015649 -0.022946
							CHANNELS 3 Zrotation Yrotation Xrotation
							JOINT lwrist
							{
								OFFSET 0.265709 0.012698 -0.007375
								CHANNELS 3 Zrotation Yrotation Xrotation
								End Site
								{
									OFFSET 0.000000 0.000000 0.000000
								}
							}
						}
					}
				}
				JOINT rclavicle
				{
					OFFSET -0.082954 0.112472 -0.023707
					CHANNELS 3 Zrotation Yrotation Xrotation
					JOINT rshoulder
					{
						OFFSET -0.113228 0.046853 -0.008472
						CHANNELS 3 Zrotation Yrotation Xrotation
						JOINT relbow
						{
							OFFSET -0.260127 -0.014369 -0.031269
							CHANNELS 3 Zrotation Yrotation Xrotation
							JOINT rwrist
							{
								OFFSET -0.269108 0.006794 -0.006027
								CHANNELS 3 Zrotation Yrotation Xrotation
								End Site
								{
									OFFSET 0.000000 0.000000 0.000000
								}
							}
						}
					}
				}
			}
		}
	}
}
MOTION
Frames: 13
Frame Time: 0.033333
2.338187 0.699662 1.004344 -87.086997 0.199269 82.775619 0.025022 1.205500 6.960169 0.592320 -11.315479 0.162551 0.613510 7.803606 -8.648364 0.000000 -0.000000 0.000000 0.851887 -4.254506 6.229399 -4.420479 0.825383 3.301750 1.326596 -8.317910 -10.795634 0.000000 -0.000000 0.000000 -0.404095 2.616239 10.124927 -2.015343 -4.098599 -1.254898 -0.081856 -1.284952 -0.463065 -0.364724 -3.247559 -9.816116 8.828016 -0.642307 -1.355603 -21.255055 -11.947403 6.454643 -58.381021 -7.818585 13.969166 -0.670037 -10.517369 22.468328 -11.015200 -1.699347 -11.537412 16.414092 13.775094 3.009969 62.247663 3.341470 22.466924 0.280823 30.025565 31.625433 31.381699 -7.969472 -4.334380 
2.343239 0.700617 0.996658 -87.925626 0.131012 83.401631 -0.435715 0.433263 5.538459 0.739145 -9.838940 0.539651 0.419858 7.995890 -7.738516 0.000000 -0.000000 0.000000 1.133369 -2.938350 4.385113 -4.705570 0.461906 4.204060 0.582466 -8.782864 -10.982344 0.000000 -0.000000 0.000000 -0.811899 2.271243 9.854465 -1.481209 -3.343719 0.781915 0.116596 -0.808236 -1.365692 -0.005200 -2.832020 -12.159036 7.983336 -0.902966 -0.874857 -20.801994 -11.979087 5.888068 -59.085399 -9.938596 12.549236 -1.641447 -12.365337 17.907286 -14.248743 -3.945270 -11.229169 14.522580 13.526449 2.818350 63.200025 4.951926 22.189808 0.312674 30.494019 31.010134 32.504400 -8.135071 -4.484003 
2.344908 0.701314 0.994705 -88.233236 0.389740 84.331548 -0.088426 -0.060467 4.151223 0.531964 -9.236309 0.911484 0.669411 7.988450 -7.669921 0.000000 -0.000000 0.000000 1.519415 -2.303093 3.068207 -4.564626 0.420009 4.294892 0.694846 -8.687327 -10.594904 0.000000 -0.000000 0.000000 -0.706059 2.242535 9.374771 -1.418409 -3.006109 0.237339 0.128086 -0.755522 -1.308716 0.127950 -2.711969 -11.975524 7.861140 -1.009801 -1.149786 -21.212588 -11.506694 5.690804 -58.844382 -10.134442 12.801771 -1.721459 -12.681797 17.731936 -15.867026 -3.945499 -10.959712 15.132644 13.145552 2.920000 62.604872 4.962347 22.351934 0.476908 30.584533 30.675933 32.502407 -7.923181 -4.645712 
2.345395 0.701568 0.994020 -88.218942 0.400311 84.502010 -0.045608 -0.086031 3.859506 0.475249 -9.210558 1.013560 0.722258 8.001764 -7.750889 0.000000 -0.000000 0.000000 1.569514 -2.303577 2.796381 -4.621000 0.351867 4.363288 0.775820 -8.890892 -10.670395 0.000000 -0.000000 0.000000 -0.833349 2.180061 9.576442 -1.429591 -2.863053 -0.427138 0.066552 -0.751718 -1.104392 0.431311 -2.657525 -12.197719 7.692753 -1.110302 -0.768659 -21.665519 -10.876993 5.222786 -58.590593 -10.300875 12.892905 -1.846242 -12.239014 18.309366 -16.363801 -4.043333 -10.672003 15.544626 12.674124 2.635039 62.508321 5.044683 22.665471 0.754520 29.956569 30.395218 32.110264 -7.944294 -4.568870 
2.345515 0.701403 0.993792 -88.120660 0.443154 84.580172 -0.015667 -0.078131 3.765880 0.532287 -9.240763 0.948640 0.662193 7.887517 -7.668422 0.000000 -0.000000 0.000000 1.616315 -2.191735 2.736832 -4.580489 0.279458 4.315840 0.743547 -8.762645 -10.539761 0.000000 -0.000000 0.000000 -0.834312 2.124857 9.464480 -1.399922 -2.870159 -0.398280 0.076393 -0.754334 -1.109277 0.406579 -2.778327 -11.811822 7.673516 -0.996810 -1.250331 -21.863424 -10.935190 5.293656 -58.549201 -10.340175 12.874681 -1.672130 -12.121724 17.756622 -17.024638 -3.952450 -10.893325 15.501865 12.661026 2.634404 62.570631 4.967478 22.673365 0.583188 29.889586 30.035475 32.182336 -7.658578 -4.758752 
2.345335 0.701182 0.993535 -88.019171 0.472141 84.546818 0.002533 -0.065036 3.911383 0.560983 -9.349609 0.691641 0.717749 7.845607 -7.634822 0.000000 -0.000000 0.000000 1.640925 -2.277128 2.822263 -4.615943 0.156598 4.242993 0.733054 -8.888138 -10.473276 0.000000 -0.000000 0.000000 -0.917805 2.056864 9.409646 -1.334812 -2.947850 -0.284832 0.125280 -0.687128 -1.110463 0.326013 -2.850579 -11.601766 7.523069 -0.998222 -1.658655 -21.638198 -10.922283 5.301359 -58.584472 -10.374708 13.003815 -1.949788 -11.944370 18.049376 -17.424273 -3.993233 -11.416769 15.500952 12.723312 2.680263 62.532814 4.925967 22.633383 0.542221 29.802529 29.468828 31.573433 -7.265964 -4.869600 
2.345539 0.701151 0.993393 -88.068247 0.492816 84.505509 0.041165 -0.072477 3.997406 0.542464 -9.351256 0.591845 0.600709 7.802158 -7.738548 0.000000 -0.000000 0.000000 1.674661 -2.226647 2.850153 -4.624901 0.139004 4.201687 0.767368 -8.852208 -10.515210 0.000000 -0.000000 0.000000 -0.979114 2.102766 9.400498 -1.229944 -2.966457 -0.115776 0.189729 -0.762099 -1.092063 0.268550 -2.762484 -11.397324 7.335642 -0.971348 -2.200109 -21.446845 -10.909184 5.269062 -58.463723 -10.452912 13.109865 -2.353919 -11.589068 18.073014 -17.743287 -4.457323 -11.993394 15.415634 12.681056 2.622485 62.475620 5.058819 22.739044 0.703318 29.674994 29.014586 30.997725 -6.776459 -5.091058 
2.345845 0.700822 0.993115 -88.091711 0.443546 84.501905 -0.030230 -0.059020 3.947410 0.525827 -9.335479 0.610015 0.451309 7.714496 -7.703961 0.000000 -0.000000 0.000000 1.616631 -2.244632 2.809192 -4.642852 0.144631 4.222966 0.942532 -8.913208 -10.528268 0.000000 -0.000000 0.000000 -1.087822 2.120211 9.311870 -1.171828 -2.969217 -0.016764 0.173823 -0.772677 -0.962158 0.304438 -2.502629 -11.412211 7.254541 -1.087530 -2.223106 -21.615738 -11.154907 5.324994 -57.696995 -10.444837 13.226452 -2.574213 -11.417757 18.116861 -17.382056 -4.918939 -11.515357 15.614067 12.643122 2.385639 62.160768 5.104835 22.876504 0.940683 29.555179 28.869181 30.614482 -6.662270 -5.046028 
2.345904 0.700429 0.992878 -88.138907 0.394897 84.558441 -0.093117 -0.104727 3.889625 0.534138 -9.225440 0.588311 0.540432 7.833621 -7.633029 0.000000 -0.000000 0.000000 1.577039 -2.177381 2.741699 -4.611680 0.272857 4.191654 0.850695 -8.879007 -10.432919 0.000000 -0.000000 0.000000 -1.078648 2.083160 9.259196 -1.171568 -2.875131 -0.092865 -0.028078 -0.630100 -0.963786 0.441588 -2.362586 -11.384613 7.200103 -1.414347 -1.996097 -21.513488 -10.885541 5.054805 -56.945589 -10.441645 13.255417 -3.155763 -11.258269 18.170541 -19.079299 -5.119741 -12.202683 15.975577 12.357735 2.340642 61.949419 5.149987 23.067161 0.938266 29.465392 28.513131 30.936663 -6.865152 -4.837595 
2.345756 0.699408 0.992611 -88.485398 0.261698 84.724712 -0.337411 -0.081656 3.807144 0.606309 -9.188181 0.465358 0.451598 7.993529 -7.725780 0.000000 -0.000000 0.000000 1.309722 -2.132599 2.628715 -4.465845 0.355310 3.969371 1.058648 -8.674780 -10.404978 0.000000 -0.000000 0.000000 -1.029107 2.226678 9.063649 -1.267686 -2.639327 -0.334897 -0.242296 -0.469228 -0.870103 0.710398 -2.355612 -10.933329 7.007959 -1.876492 -1.968887 -21.431208 -10.230963 4.469114 -56.306720 -10.457869 13.266319 -3.535478 -10.785392 18.385597 -20.185299 -5.139193 -12.166274 16.211641 11.772986 2.133664 62.048845 5.229297 23.185201 0.927997 29.085421 27.911734 30.858673 -6.574634 -4.979668 
2.345711 0.698768 0.992684 -88.598177 0.238342 84.775663 -0.352902 -0.002990 3.801886 0.611544 -9.080605 0.382261 0.322414 7.990650 -7.773288 0.000000 -0.000000 0.000000 1.241887 -2.142778 2.584164 -4.410329 0.455262 3.888551 1.191572 -8.506356 -10.173744 0.000000 -0.000000 0.000000 -0.972256 2.224283 9.046604 -1.306528 -2.489104 -0.719421 -0.346037 -0.312348 -0.644442 0.792797 -2.420188 -10.686650 6.910895 -2.207346 -1.848008 -21.437499 -9.694586 4.062512 -55.802434 -10.404040 13.222272 -3.949226 -10.793046 18.545223 -19.672545 -5.015699 -11.192600 16.439009 11.350411 1.846853 61.887542 5.094691 23.304235 1.218947 28.880330 27.816921 30.298694 -6.500822 -4.668953 
2.345200 0.698296 0.993001 -88.484622 0.322655 84.612052 -0.208068 -0.078279 4.120807 0.495638 -9.294526 0.185262 0.184288 7.922563 -7.926691 0.000000 -0.000000 0.000000 1.272350 -2.221628 2.983601 -4.342961 0.384061 3.573387 1.138701 -8.593558 -10.094436 0.000000 -0.000000 0.000000 -0.953960 2.343769 8.863588 -1.171464 -2.616738 -0.211816 -0.286438 -0.419298 -0.737059 0.690674 -2.421449 -10.239445 6.941021 -2.192231 -2.520288 -21.472025 -9.837929 4.389291 -55.440744 -10.214522 13.164293 -4.017349 -11.006483 18.375765 -20.820456 -5.390642 -12.094730 16.468134 11.492408 1.923956 61.667457 5.102620 23.220377 1.213354 28.932447 27.607993 30.435588 -6.350092 -4.728610 
2.345010 0.697883 0.992940 -88.349935 0.292555 84.584710 -0.282432 -0.011262 4.179524 0.566141 -9.341516 0.077236 0.084433 7.897601 -7.996811 0.000000 -0.000000 0.000000 1.234905 -2.234494 3.112580 -4.386285 0.362067 3.411878 1.277110 -8.649385 -10.235581 0.000000 -0.000000 0.000000 -1.028731 2.389103 8.830637 -1.089380 -2.667936 -0.092868 -0.221205 -0.484042 -0.705942 0.613834 -2.389282 -10.049586 6.821346 -2.344318 -2.949825 -21.359142 -9.962005 4.544960 -55.219025 -9.963055 13.462862 -4.539346 -11.171258 18.850997 -19.903140 -5.758161 -11.269819 16.486151 11.574540 1.912947 61.494954 5.076112 23.125557 1.452417 28.725838 26.820557 29.060964 -5.807128 -4.885760 
